<?xml version="1.0" standalone="no"?><!DOCTYPE svg PUBLIC "-//W3C//DTD SVG 1.1//EN" "http://www.w3.org/Graphics/SVG/1.1/DTD/svg11.dtd"><svg class="icon" width="16px" height="16.00px" viewBox="0 0 1024 1024" version="1.1" xmlns="http://www.w3.org/2000/svg"><path fill="#bfbfbf" d="M853.333333 938.666667H336.64a85.333333 85.333333 0 0 1-85.333333-85.333334V336.64a85.333333 85.333333 0 0 1 85.333333-85.333333H853.333333a85.333333 85.333333 0 0 1 85.333334 85.333333V853.333333a85.333333 85.333333 0 0 1-85.333334 85.333334z m-20.48-602.453334H355.84a20.053333 20.053333 0 0 0-20.48 20.48v474.88a20.053333 20.053333 0 0 0 20.48 20.48h475.733333a20.053333 20.053333 0 0 0 20.48-20.48L853.333333 357.12a20.906667 20.906667 0 0 0-20.48-20.906667zM170.666667 742.4V191.146667A20.053333 20.053333 0 0 1 192.426667 170.666667h440.32a42.666667 42.666667 0 0 0 0-85.333334H170.666667a85.333333 85.333333 0 0 0-85.333334 85.333334v571.733333a42.666667 42.666667 0 0 0 85.333334 0z" /></svg>