<?xml version="1.0" standalone="no"?><!DOCTYPE svg PUBLIC "-//W3C//DTD SVG 1.1//EN" "http://www.w3.org/Graphics/SVG/1.1/DTD/svg11.dtd"><svg class="icon" width="200px" height="200.00px" viewBox="0 0 1024 1024" version="1.1" xmlns="http://www.w3.org/2000/svg"><path d="M512 512m-512 0a512 512 0 1 0 1024 0 512 512 0 1 0-1024 0Z" fill="#EF373A" /><path d="M515.304727 465.92l115.2-115.153455a34.909091 34.909091 0 1 1 49.338182 49.338182l-115.153454 115.2 115.2 115.2a34.909091 34.909091 0 1 1-49.384728 49.338182l-115.2-115.153454-115.2 115.2a34.909091 34.909091 0 1 1-49.338182-49.384728l115.153455-115.2-115.153455-115.2a34.909091 34.909091 0 1 1 49.338182-49.338182l115.2 115.153455z" fill="#FFFFFF" /></svg>