<?xml version="1.0" standalone="no"?><!DOCTYPE svg PUBLIC "-//W3C//DTD SVG 1.1//EN" "http://www.w3.org/Graphics/SVG/1.1/DTD/svg11.dtd"><svg class="icon" width="48px" height="48.00px" viewBox="0 0 1024 1024" version="1.1" xmlns="http://www.w3.org/2000/svg"><path d="M980.676923 330.830769c-63.015385-165.415385-212.676923-283.569231-389.907692-315.076923C315.076923-27.569231 59.076923 161.476923 15.753846 433.230769S161.476923 964.923077 433.230769 1008.246154C708.923077 1051.569231 964.923077 866.461538 1008.246154 590.769231c3.938462-15.753846-7.876923-31.507692-23.630769-35.446154-15.753846-3.938462-31.507692 7.876923-35.446154 23.630769-39.384615 240.246154-263.876923 405.661538-508.061539 370.215385-240.246154-39.384615-405.661538-263.876923-370.215384-508.061539S334.769231 35.446154 578.953846 70.892308c157.538462 23.630769 287.507692 129.969231 342.646154 275.692307 7.876923 15.753846 23.630769 23.630769 39.384615 15.753847 15.753846 0 23.630769-15.753846 19.692308-31.507693z" fill="#437ACF" /><path d="M512 1024c283.569231 0 512-228.430769 512-512S795.569231 0 512 0 0 228.430769 0 512s228.430769 512 512 512z m0-78.769231C271.753846 945.230769 78.769231 752.246154 78.769231 512S271.753846 78.769231 512 78.769231s433.230769 192.984615 433.230769 433.230769-192.984615 433.230769-433.230769 433.230769z" fill="#E1E1E1" /><path d="M878.276923 153.6C779.815385 55.138462 649.846154 0 512 0c-23.630769 0-39.384615 15.753846-39.384615 39.384615s15.753846 39.384615 39.384615 39.384616c118.153846 0 228.430769 47.261538 307.2 129.969231 15.753846 15.753846 39.384615 15.753846 55.138462 0 15.753846-15.753846 15.753846-39.384615 3.938461-55.138462z" fill="#437ACF" /></svg>