<?xml version="1.0" standalone="no"?><!DOCTYPE svg PUBLIC "-//W3C//DTD SVG 1.1//EN" "http://www.w3.org/Graphics/SVG/1.1/DTD/svg11.dtd"><svg class="icon" width="64px" height="64.00px" viewBox="0 0 1024 1024" version="1.1" xmlns="http://www.w3.org/2000/svg"><path fill="#bfbfbf" d="M960 576 832 576C796.672 576 768 547.328 768 512 768 476.672 796.672 448 832 448L960 448C995.328 448 1024 476.672 1024 512 1024 547.328 995.328 576 960 576ZM783.552 331.008C758.528 355.968 718.016 355.968 692.992 331.008 668.032 305.984 668.032 265.472 692.992 240.448L783.552 149.952C808.512 124.992 849.024 124.992 874.048 149.952 899.008 174.976 899.008 215.488 874.048 240.448L783.552 331.008ZM512 1024C476.672 1024 448 995.392 448 960L448 832C448 796.672 476.672 768 512 768 547.328 768 576 796.672 576 832L576 960C576 995.392 547.328 1024 512 1024ZM512 256C476.672 256 448 227.392 448 192L448 64C448 28.608 476.672 0 512 0 547.328 0 576 28.608 576 64L576 192C576 227.392 547.328 256 512 256ZM240.448 874.048C215.488 899.008 174.976 899.008 149.952 874.048 124.992 849.088 124.992 808.576 149.952 783.552L240.448 693.056C265.472 668.032 305.984 668.032 331.008 693.056 355.968 718.016 355.968 758.528 331.008 783.552L240.448 874.048ZM240.448 331.008 149.952 240.448C124.992 215.488 124.992 174.976 149.952 149.952 174.976 124.992 215.488 124.992 240.448 149.952L331.008 240.448C355.968 265.472 355.968 305.984 331.008 331.008 305.984 355.968 265.472 355.968 240.448 331.008ZM256 512C256 547.328 227.328 576 192 576L64 576C28.672 576 0 547.328 0 512 0 476.672 28.672 448 64 448L192 448C227.328 448 256 476.672 256 512ZM783.552 693.056 874.048 783.552C899.008 808.576 899.008 849.088 874.048 874.048 849.024 899.008 808.512 899.008 783.552 874.048L692.992 783.552C668.032 758.528 668.032 718.016 692.992 693.056 718.016 668.032 758.528 668.032 783.552 693.056Z" /></svg>