<?xml version="1.0" standalone="no"?><!DOCTYPE svg PUBLIC "-//W3C//DTD SVG 1.1//EN" "http://www.w3.org/Graphics/SVG/1.1/DTD/svg11.dtd"><svg class="icon" width="48px" height="48.00px" viewBox="0 0 1024 1024" version="1.1" xmlns="http://www.w3.org/2000/svg"><path d="M579.754667 152.106667a75.306667 75.306667 0 1 1-150.613334 0 75.306667 75.306667 0 0 1 150.613334 0z" fill="#58595B" /><path d="M316.245333 194.261333c27.093333 31.616 22.570667 79.829333-9.045333 106.922667s-79.829333 22.570667-106.922667-9.045333c-27.093333-31.616-22.570667-79.829333 9.045334-106.922667s79.829333-22.570667 106.922666 9.045333z" fill="#6C6E70" /><path d="M140.032 396.032c40.661333 7.509333 69.290667 46.677333 61.738667 87.338667s-46.677333 69.290667-87.338667 61.738666c-40.661333-7.509333-69.290667-46.677333-61.738667-87.338666 6.016-42.154667 45.184-69.290667 87.338667-61.738667z" fill="#808183" /><path d="M190.976 656.256a75.264 75.264 0 1 1-38.613333 145.493333 75.264 75.264 0 0 1 38.613333-145.493333z" fill="#929496" /><path d="M302.677333 871.893333a74.24 74.24 0 0 1 96.384-45.184 74.24 74.24 0 0 1 45.184 96.384 74.24 74.24 0 0 1-96.384 45.184 73.088 73.088 0 0 1-45.184-96.384z" fill="#A6A8AB" /><path d="M564.693333 923.093333c-13.568-39.168 6.016-82.816 45.184-96.384s82.816 6.016 96.384 45.184c13.568 39.168-6.016 82.816-45.184 96.384-39.168 15.061333-81.322667-6.016-96.384-45.184z" fill="#BBBDBF" /><path d="M910.08 709.504a75.306667 75.306667 0 1 1-145.578667 38.570667 75.306667 75.306667 0 0 1 145.578667-38.570667z" fill="#D0D2D3" /><path d="M896 545.109333c-40.661333 7.509333-79.829333-19.584-87.338667-61.738666-7.509333-40.661333 19.584-79.829333 61.738667-87.338667s79.829333 19.584 87.338667 61.738667c7.509333 40.661333-21.077333 79.829333-61.738667 87.338666z" fill="#E6E7E7" /><path d="M808.661333 290.645333c-27.093333 31.616-75.306667 36.138667-106.922666 9.045334s-36.138667-75.306667-9.045334-106.922667c27.093333-31.616 75.306667-36.138667 106.922667-9.045333 33.109333 27.093333 36.138667 75.306667 9.045333 106.922666z" fill="#403F41" /></svg>