<?xml version="1.0" standalone="no"?><!DOCTYPE svg PUBLIC "-//W3C//DTD SVG 1.1//EN" "http://www.w3.org/Graphics/SVG/1.1/DTD/svg11.dtd"><svg class="icon" width="16px" height="16.00px" viewBox="0 0 1024 1024" version="1.1" xmlns="http://www.w3.org/2000/svg"><path fill="#c5c5c5" d="M512 962C263.474 962 62 760.526 62 512S263.474 62 512 62s450 201.474 450 450-201.474 450-450 450z m2.2725-850.9455c-222.6915 0-403.218 180.5265-403.218 403.218s180.5265 403.218 403.218 403.218 403.218-180.5265 403.218-403.218-180.5265-403.218-403.218-403.218z"  /><path fill="#c5c5c5" d="M472.9085 101.096l78.192 0 0 156.5145-78.192 0 0-156.5145Z"  /><path fill="#c5c5c5" d="M472.9085 766.3895l78.192 0 0 156.519-78.192 0 0-156.519Z"  /><path fill="#c5c5c5" d="M766.3895 472.9085l156.519 0 0 78.192-156.519 0 0-78.192Z"  /><path fill="#c5c5c5" d="M101.096 472.9085l156.5145 0 0 78.192-156.5145 0 0-78.192Z"  /><path fill="#c5c5c5" d="M512 512m-176.0625 0a176.0625 176.0625 0 1 0 352.125 0 176.0625 176.0625 0 1 0-352.125 0Z"  /></svg>