<?xml version="1.0" standalone="no"?><!DOCTYPE svg PUBLIC "-//W3C//DTD SVG 1.1//EN" "http://www.w3.org/Graphics/SVG/1.1/DTD/svg11.dtd"><svg class="icon" width="200px" height="200.00px" viewBox="0 0 1024 1024" version="1.1" xmlns="http://www.w3.org/2000/svg"><path d="M512 512m-426.7 0a426.7 426.7 0 1 0 853.4 0 426.7 426.7 0 1 0-853.4 0Z" fill="#00D36E" /><path d="M713.7 367.7c-14.5-13.2-37-12.2-50.2 2.3L447 607.6 357.9 528c-14.6-13.1-37.1-11.8-50.2 2.8-13.1 14.6-11.8 37.1 2.8 50.2l115.3 103.1c14.5 13 36.8 11.9 50-2.5L716.1 418c13.2-14.5 12.1-37-2.4-50.3z" fill="#FFFFFF" /></svg>